# xmcd
#
# Track frame offsets:
#	150
#	18346
#	34647
#	51629
#	67864
#	84840
#	101015
#	116462
#	130569
#	148841
#	167006
#	179934
#	197892
#	216289
#
# Disc length: 3110 seconds
#
# Revision: 1
# Processed by: cddbd v1.5.2PL0 Copyright (c) Steve Scherf et al.
# Submitted via: audiograbber 1.83.01
#
DISCID=c80c240e
DTITLE=Frans Bauer - Liebesbriefe SMD
DYEAR=1996
DGENRE=Schlager
TTITLE0=Frans Bauer -  Wenn ein Stern am Himmel steht
TTITLE1=Frans Bauer - Buenos dias weiße Taube
TTITLE2=Frans Bauer - Ein Tag aus tausend Träumen
TTITLE3=Frans Bauer -  Sommer in Paris
TTITLE4=Frans Bauer - Liebesbriefe 
TTITLE5=Frans Bauer - Heimweh nach Santa Mariena 
TTITLE6=Frans Bauer - Sieben Rosen, sieben Tränen
TTITLE7=Frans Bauer -  Wenn in Piräus schon Rosen blühn
TTITLE8=Frans Bauer - Teeager Melodie
TTITLE9=Frans Bauer -  Manana
TTITLE10=Frans Bauer - Weine nicht Corinna
TTITLE11=Frans Bauer -  Amore mi Amore
TTITLE12=Frans Bauer - Barcarole
TTITLE13=Frans Bauer - Alles geht im Leben einmal vorbe
EXTD=
EXTT0=
EXTT1=
EXTT2=
EXTT3=
EXTT4=
EXTT5=
EXTT6=
EXTT7=
EXTT8=
EXTT9=
EXTT10=
EXTT11=
EXTT12=
EXTT13=
PLAYORDER=
